<?xml version="1.0" standalone="no"?>
<!DOCTYPE svg PUBLIC "-//W3C//DTD SVG 20010904//EN"
 "http://www.w3.org/TR/2001/REC-SVG-20010904/DTD/svg10.dtd">
<svg version="1.0" xmlns="http://www.w3.org/2000/svg"
 width="200.000000pt" height="200.000000pt" viewBox="0 0 200.000000 200.000000"
 preserveAspectRatio="xMidYMid meet">

<g transform="translate(0.000000,200.000000) scale(0.100000,-0.100000)"
fill="#000000" stroke="none">
<path d="M0 1000 l0 -1000 1000 0 1000 0 0 1000 0 1000 -1000 0 -1000 0 0
-1000z m1225 871 c362 -92 646 -426 645 -760 0 -99 -16 -126 -25 -45 -20 161
-108 362 -203 466 -157 169 -367 258 -607 257 -190 0 -322 -41 -455 -144 -107
-82 -177 -173 -242 -313 -52 -112 -67 -176 -68 -288 0 -166 59 -331 178 -498
32 -43 74 -94 96 -112 47 -40 287 -161 310 -155 4 1 13 -2 20 -7 6 -5 56 -15
112 -22 110 -14 182 -7 304 32 110 34 315 142 315 166 0 4 24 38 53 76 28 38
52 63 52 56 0 -8 -18 -35 -41 -62 -25 -29 -35 -48 -26 -48 17 0 83 70 122 129
41 62 41 42 1 -41 l-36 -73 30 35 c17 19 44 58 60 85 16 28 30 46 30 41 0 -5
8 -2 17 5 33 28 -80 -171 -135 -237 -127 -151 -254 -232 -442 -281 -94 -25
-122 -28 -270 -28 -158 0 -169 2 -265 32 -240 77 -432 247 -551 488 -97 197
-116 421 -53 617 84 264 290 495 523 588 68 27 105 37 236 64 52 10 237 -3
315 -23z m95 -615 c0 -62 8 -66 49 -25 61 62 122 64 165 6 20 -27 21 -39 18
-215 -4 -206 5 -252 55 -304 15 -16 23 -28 19 -28 -18 0 -66 32 -90 60 -41 50
-49 98 -42 257 5 113 4 149 -8 177 -28 68 -91 52 -129 -32 -15 -35 -22 -80
-28 -177 -4 -71 -10 -138 -14 -147 -5 -12 -18 -18 -37 -18 -27 0 -30 3 -23 23
4 12 9 112 11 223 2 110 6 208 10 217 3 9 15 17 25 17 15 0 19 -7 19 -34z
m-660 2 c59 -31 82 -75 77 -151 -4 -66 -25 -101 -79 -129 -40 -21 -115 -29
-120 -13 -2 5 13 12 32 15 48 8 77 29 95 66 31 66 8 145 -49 169 -45 19 -76
19 -126 -1 -61 -25 -77 -72 -45 -134 15 -28 14 -30 -4 -30 -28 0 -61 47 -61
86 0 23 10 44 32 70 64 72 166 93 248 52z m383 -35 c33 -38 25 -84 -22 -129
l-40 -37 30 -60 c23 -44 33 -57 42 -48 8 8 8 22 0 51 -9 34 -8 40 5 40 25 0
52 -31 52 -59 0 -14 -9 -39 -19 -56 l-19 -30 41 -42 c47 -50 31 -57 -27 -13
-37 28 -40 29 -69 14 -43 -23 -106 -13 -134 21 -36 41 -32 104 10 148 29 31
32 39 29 86 -5 61 2 94 24 115 21 21 77 20 97 -1z m-497 -55 c-12 -54 -25
-208 -26 -285 0 -71 -1 -73 -25 -73 -14 0 -25 6 -26 13 -3 33 3 172 11 252 8
75 13 92 32 107 33 26 41 22 34 -14z m1314 -298 c-6 -34 -23 -86 -36 -114 -26
-53 -26 -49 6 69 28 103 32 116 37 111 2 -2 -1 -32 -7 -66z m-440 -515 c0 -7
-70 -41 -100 -49 -14 -3 0 7 30 22 57 30 70 35 70 27z"/>
<path d="M966 1194 c-9 -23 -7 -77 3 -93 7 -11 14 -7 30 20 24 39 26 60 9 77
-17 17 -35 15 -42 -4z"/>
<path d="M922 995 c-30 -65 3 -133 56 -120 44 11 45 19 7 74 -19 29 -35 57
-35 62 0 18 -17 8 -28 -16z"/>
</g>
</svg>
